<?xml version="1.0" encoding="UTF-8" standalone="no"?><!DOCTYPE svg PUBLIC "-//W3C//DTD SVG 1.1//EN" "http://www.w3.org/Graphics/SVG/1.1/DTD/svg11.dtd"><svg width="30px" height="30px" viewBox="0 0 23 23" version="1.1" xmlns="http://www.w3.org/2000/svg" xmlns:xlink="http://www.w3.org/1999/xlink" xml:space="preserve" xmlns:serif="http://www.serif.com/" style="fill-rule:evenodd;clip-rule:evenodd;stroke-linejoin:round;stroke-miterlimit:2;"><path id="Mail" d="M0,3.938l0,14.624l22.5,0l0,-14.625l-22.5,0Zm13.163,8.944c-0.507,0.506 -1.182,0.788 -1.913,0.788c-0.731,-0 -1.406,-0.282 -1.912,-0.788l-7.819,-7.819l19.406,0l-7.762,7.819Zm-6.244,-1.631l-5.794,5.794l0,-11.588l5.794,5.794Zm0.394,0.394l1.631,1.631c0.619,0.619 1.462,0.956 2.306,0.956c0.9,0 1.688,-0.337 2.306,-0.956l1.632,-1.631l5.793,5.793l-19.462,0l5.794,-5.793Zm8.268,-0.394l5.794,-5.794l0,11.644l-5.794,-5.85Z" style="fill-rule:nonzero;"/></svg>