<svg xmlns="http://www.w3.org/2000/svg" version="1.1" xmlns:xlink="http://www.w3.org/1999/xlink" xmlns:svgjs="http://svgjs.com/svgjs" width="512" height="512" x="0" y="0" viewBox="0 0 90 90" style="enable-background:new 0 0 512 512" xml:space="preserve"><g><g fill-rule="evenodd" clip-rule="evenodd"><path d="M24.059 6.18a1.136 1.136 0 0 0-1.063 1.083l-1.364 24.869c-.142 2.557.822 4.464 2.14 5.74 1.125 1.084 2.412 1.692 3.558 2.302l-1.58 37.823c-.155 3.734 3.084 6.687 6.819 6.687 3.738 0 6.973-2.953 6.817-6.687l-1.584-37.823c1.152-.609 2.444-1.218 3.568-2.302 1.318-1.276 2.27-3.183 2.135-5.74l-1.36-24.869a1.134 1.134 0 0 0-2.265.125l1.365 24.87c.109 1.984-.5 3.057-1.453 3.98-.959.926-2.344 1.604-3.693 2.342-.38.204-.609.609-.588 1.037l1.609 38.468c.099 2.365-1.989 4.333-4.551 4.333-2.558 0-4.652-1.968-4.552-4.333l1.609-38.468a1.13 1.13 0 0 0-.584-1.037c-1.35-.739-2.74-1.416-3.697-2.342-.959-.923-1.558-1.996-1.449-3.98l1.359-24.87a1.133 1.133 0 0 0-1.196-1.208z" fill="#282828" data-original="#000000"></path><path d="M29.736 6.18a1.133 1.133 0 0 0-1.115 1.15v19.511a1.13 1.13 0 0 0 1.135 1.176 1.13 1.13 0 0 0 1.131-1.176V7.33a1.131 1.131 0 0 0-1.151-1.15zM35.371 6.18a1.132 1.132 0 0 0-1.125 1.15v19.511a1.14 1.14 0 1 0 2.277 0V7.33a1.132 1.132 0 0 0-1.152-1.15zM55.636 7.642c.548-.172 1.704.109 3.021 1.417 3.156 3.135 7.5 9.198 7.5 19.708 0 9.688-2.167 15.355-5.172 18.339a1.128 1.128 0 0 0-.328.891l2.234 30.083c.094 1.24-.328 2-1.057 2.589-.724.588-1.833.938-2.975.938-1.14.005-2.28-.338-3.078-.942-.792-.609-1.281-1.407-1.281-2.667V10.554c0-1.032.178-1.765.407-2.213.225-.443.453-.615.729-.699zm-.682-2.166c-.874.282-1.614.954-2.063 1.833-.453.88-.661 1.959-.661 3.246v67.442c0 1.921.901 3.5 2.183 4.474 1.276.975 2.875 1.407 4.458 1.401 1.578-.006 3.172-.448 4.396-1.442 1.229-1 2.027-2.609 1.886-4.511l-2.214-29.822c3.36-3.672 5.484-9.719 5.484-19.328 0-11.14-4.697-17.864-8.167-21.312-1.651-1.642-3.541-2.533-5.302-1.981z" fill="#282828" data-original="#000000"></path></g></g></svg>