<?xml version="1.0" encoding="UTF-8" standalone="no"?><!DOCTYPE svg PUBLIC "-//W3C//DTD SVG 1.1//EN" "http://www.w3.org/Graphics/SVG/1.1/DTD/svg11.dtd"><svg width="100%" height="100%" viewBox="0 0 1480 1480" version="1.1" xmlns="http://www.w3.org/2000/svg" xmlns:xlink="http://www.w3.org/1999/xlink" xml:space="preserve" xmlns:serif="http://www.serif.com/" style="fill-rule:evenodd;clip-rule:evenodd;stroke-linejoin:round;stroke-miterlimit:2;"><path id="Person" d="M738.188,123.033c-339.567,0 -615.155,275.588 -615.155,615.155c0,339.566 275.588,615.158 615.155,615.158c339.566,-0 615.158,-275.592 615.158,-615.159c-0,-339.566 -275.592,-615.154 -615.159,-615.154Zm375.726,1038.35c116.687,-103.675 190.22,-254.866 190.22,-423.195c0,-312.5 -253.445,-565.942 -565.945,-565.942c-312.5,-0 -565.942,253.442 -565.942,565.942c-0,168.329 73.533,319.52 190.221,423.195c66.816,-2.07 158.187,14.788 240.791,-78.091c24.154,-27.159 19.08,-101.434 11.9,-123.646c-29.054,-14.304 -47.837,-56.954 -49.212,-147.638c-27.009,0.409 -44.354,-9.125 -49.213,-24.608c-17.471,-55.658 -39.783,-114.717 0,-172.242c-53.658,-203.533 73.821,-319.879 221.454,-319.883c147.634,0 275.113,116.346 221.459,319.883c39.783,57.525 17.471,116.584 -0,172.242c-4.859,15.483 -22.204,25.017 -49.213,24.608c-1.375,90.684 -20.158,133.334 -49.212,147.638c-7.179,22.212 -12.254,96.487 11.9,123.646c82.6,92.879 173.971,76.021 240.791,78.091Z"/></svg>