<?xml version="1.0" encoding="UTF-8" standalone="no"?><!DOCTYPE svg PUBLIC "-//W3C//DTD SVG 1.1//EN" "http://www.w3.org/Graphics/SVG/1.1/DTD/svg11.dtd"><svg width="100%" height="100%" viewBox="0 0 21 28" version="1.1" xmlns="http://www.w3.org/2000/svg" xmlns:xlink="http://www.w3.org/1999/xlink" xml:space="preserve" xmlns:serif="http://www.serif.com/" style="fill-rule:evenodd;clip-rule:evenodd;stroke-linejoin:round;stroke-miterlimit:2;"><path d="M10.125,2.206c-3.637,-0 -6.596,2.959 -6.596,6.595l0,2.714c-1.181,0.418 -2.029,1.542 -2.029,2.867l0,8.118c0,1.681 1.363,3.044 3.044,3.044l11.162,0c1.681,0 3.044,-1.363 3.044,-3.044l0,-8.118c0,-1.325 -0.848,-2.449 -2.029,-2.867l-0,-2.714c-0,-3.636 -2.959,-6.595 -6.596,-6.595Zm0,2.029c2.518,0 4.566,2.049 4.566,4.566l0,2.537l-9.132,0l-0,-2.537c-0,-2.517 2.048,-4.566 4.566,-4.566Zm-5.581,9.133l11.162,-0c0.561,-0 1.015,0.454 1.015,1.014l-0,8.118c-0,0.561 -0.454,1.015 -1.015,1.015l-11.162,-0c-0.561,-0 -1.015,-0.454 -1.015,-1.015l0,-8.118c0,-0.56 0.454,-1.014 1.015,-1.014Z" style="fill:#fff;fill-rule:nonzero;"/></svg>